<svg version="1.1" xmlns="http://www.w3.org/2000/svg" xmlns:xlink="http://www.w3.org/1999/xlink" x="0px" y="0px" viewBox="-496.8 507.1 54 54" style="enable-background-color:new -496.8 507.1 54 54;" xml:space="preserve"><style type="text/css">.chaty-sts1-0{fill:#ffffff;} .chaty-sts2{fill:none;stroke:#808080;stroke-width:1.5;stroke-linecap:round;stroke-linejoin:round;}</style><g><circle cx="-469.8" cy="534.1" r="27" fill="#FF6060"></circle></g><path class="chaty-sts1-0" d="M-459.5,523.5H-482c-2.1,0-3.7,1.7-3.7,3.7v13.1c0,2.1,1.7,3.7,3.7,3.7h19.3l5.4,5.4c0.2,0.2,0.4,0.2,0.7,0.2c0.2,0,0.2,0,0.4,0c0.4-0.2,0.6-0.6,0.6-0.9v-21.5C-455.8,525.2-457.5,523.5-459.5,523.5z"></path><path class="chaty-sts2" d="M-476.5,537.3c2.5,1.1,8.5,2.1,13-2.7"></path><path class="chaty-sts2" d="M-460.8,534.5c-0.1-1.2-0.8-3.4-3.3-2.8"></path></svg>